PathFileType	4	(x/y/z)	S06_BK_Cal_T01
DataRate	CameraRate	NumFrames	NumMarkers	Units	OrigDataRate	OrigDataStartFrame	OrigNumFrames
240	240	5	51	mm	240	2161	2880
Frame#	Time	Sternum			R.Acromium			L.Acromium			Top.Head			R.ASIS			L.ASIS			R.PSIS			L.PSIS			R.Great.Tro			L.Great.Tro			R.Iliac.Crest			L.Iliac.Crest			V.Sacral			R.Thigh.Upper.Post			R.Thigh.Lower.Ant			R.Thigh.Lower.Post			R.Thigh.Upper.Ant			R.Knee.Lat			R.Knee.Med			R.Shank.Upper.Post			R.Shank.Lower.Ant			R.Shank.Lower.Post			R.Shank.Upper.Ant			R.Ankle.Lat			R.Ankle.Med			R.Heel.Upper			R.Heel.Med			R.Heel.Lat			R.Toe.Lat			R.Toe.Med			R.Toe.Tip			L.Thigh.Upper.Post			L.Thigh.Lower.Ant			L.Thigh.Lower.Post			L.Thigh.Upper.Ant			L.Knee.Lat			L.Knee.Med			L.Shank.Upper.Post			L.Shank.Lower.Ant			L.Shank.Lower.Post			L.Shank.Upper.Ant			L.Ankle.Lat			L.Ankle.Med			L.Heel.Upper			L.Heel.Med			L.Heel.Lat			L.Toe.Lat			L.Toe.Med			L.Toe.Tip			Cervical.Spine			Back			
		X1	Y1	Z1	X2	Y2	Z2	X3	Y3	Z3	X4	Y4	Z4	X5	Y5	Z5	X6	Y6	Z6	X7	Y7	Z7	X8	Y8	Z8	X9	Y9	Z9	X10	Y10	Z10	X11	Y11	Z11	X12	Y12	Z12	X13	Y13	Z13	X14	Y14	Z14	X15	Y15	Z15	X16	Y16	Z16	X17	Y17	Z17	X18	Y18	Z18	X19	Y19	Z19	X20	Y20	Z20	X21	Y21	Z21	X22	Y22	Z22	X23	Y23	Z23	X24	Y24	Z24	X25	Y25	Z25	X26	Y26	Z26	X27	Y27	Z27	X28	Y28	Z28	X29	Y29	Z29	X30	Y30	Z30	X31	Y31	Z31	X32	Y32	Z32	X33	Y33	Z33	X34	Y34	Z34	X35	Y35	Z35	X36	Y36	Z36	X37	Y37	Z37	X38	Y38	Z38	X39	Y39	Z39	X40	Y40	Z40	X41	Y41	Z41	X42	Y42	Z42	X43	Y43	Z43	X44	Y44	Z44	X45	Y45	Z45	X46	Y46	Z46	X47	Y47	Z47	X48	Y48	Z48	X49	Y49	Z49	X50	Y50	Z50	X51	Y51	Z51	

2161	9	716.6	1244.3	318.88	598.4	1474.4	477.54	592.07	1466.8	146.21	659.93	1767.7	313.51	670.59	1008.9	444.3	674.83	1003.3	191.94	471.03	1029	349.36	471.99	1031.1	268.77	619.3	944.45	496.08	584.44	940.75	132.8	586.03	1085.7	473.96	605.63	1077.9	154.21	457.41	995.05	311.97	697.1	705.51	511.83	776.86	645.68	485.11	714.21	618.27	498.41	759.96	735.54	491.13	761.71	515.42	493.18	769.02	513.22	366.18	648.75	317.4	505.61	682.71	236.17	483.65	618.32	246.25	494.65	711.95	306.99	495.14	596.91	113.07	474.1	611.31	113.71	385.91	522.51	74.752	428.59	531.65	43.846	397.7	529.24	43.451	463.28	704.6	36.349	507.05	734.48	44.258	387.26	799.61	54.426	436.2	721.42	702.89	112.96	797.08	638.86	161.91	734.22	612.64	121.1	775.48	731.55	152.97	740.09	517.91	128.41	772.11	517.77	245.72	633.63	320.41	125.49	675.07	241.52	126.51	606.36	252.57	139.36	697.94	309.08	118.78	596.57	110.61	134.82	609.14	110.02	226.3	517.86	71.818	178.46	524.89	45.482	210.98	521.55	45.899	149.01	697.24	47.013	100.26	726.52	44.319	217.36	794.22	58.907	158.84	552.34	1506.1	312.9	480.2	1242.8	313.7
2162	9.0042	716.58	1244.4	318.91	598.38	1474.4	477.57	592.04	1466.8	146.24	659.93	1767.7	313.54	670.58	1008.9	444.33	674.82	1003.3	191.97	471.02	1029	349.38	471.98	1031.1	268.79	619.29	944.45	496.11	584.44	940.75	132.84	586.02	1085.7	473.98	605.62	1077.9	154.24	457.4	995.05	311.99	697.09	705.51	511.85	776.85	645.68	485.13	714.2	618.28	498.43	759.95	735.55	491.15	761.7	515.43	493.2	769.01	513.22	366.2	648.74	317.4	505.62	682.71	236.17	483.66	618.32	246.25	494.66	711.94	306.98	495.15	596.91	113.07	474.11	611.31	113.71	385.91	522.51	74.752	428.59	531.65	43.844	397.7	529.24	43.451	463.28	704.6	36.348	507.06	734.48	44.258	387.27	799.61	54.426	436.2	721.42	702.89	112.98	797.08	638.86	161.93	734.22	612.64	121.12	775.47	731.54	152.99	740.08	517.91	128.43	772.11	517.77	245.74	633.62	320.41	125.5	675.07	241.52	126.52	606.36	252.57	139.37	697.94	309.08	118.79	596.57	110.61	134.82	609.13	110.02	226.31	517.86	71.818	178.46	524.89	45.481	210.98	521.55	45.899	149.01	697.24	47.014	100.26	726.52	44.321	217.36	794.22	58.909	158.84	552.32	1506.1	312.94	480.19	1242.8	313.74
2163	9.0083	716.57	1244.4	318.94	598.35	1474.4	477.6	592.01	1466.8	146.27	659.93	1767.7	313.57	670.57	1008.9	444.36	674.82	1003.3	191.99	471.01	1028.9	349.4	471.97	1031.1	268.81	619.28	944.46	496.14	584.43	940.75	132.87	586.01	1085.7	474.01	605.62	1077.9	154.27	457.39	995.05	312.01	697.08	705.52	511.88	776.84	645.67	485.15	714.19	618.28	498.46	759.95	735.55	491.17	761.69	515.43	493.22	769	513.22	366.22	648.73	317.4	505.63	682.71	236.17	483.67	618.32	246.25	494.66	711.94	306.98	495.16	596.91	113.06	474.11	611.31	113.71	385.91	522.51	74.753	428.59	531.65	43.842	397.7	529.24	43.451	463.28	704.6	36.347	507.06	734.48	44.257	387.27	799.61	54.426	436.21	721.41	702.9	113	797.08	638.86	161.95	734.21	612.64	121.14	775.47	731.54	153.01	740.08	517.91	128.45	772.1	517.77	245.76	633.62	320.42	125.51	675.07	241.53	126.53	606.36	252.57	139.38	697.94	309.08	118.8	596.57	110.61	134.82	609.13	110.02	226.31	517.86	71.818	178.46	524.89	45.481	210.98	521.55	45.9	149.01	697.24	47.015	100.27	726.52	44.324	217.36	794.22	58.911	158.85	552.29	1506.1	312.97	480.19	1242.8	313.77
2164	9.0125	716.55	1244.4	318.98	598.33	1474.4	477.64	591.98	1466.8	146.31	659.93	1767.7	313.61	670.56	1008.9	444.39	674.81	1003.3	192.02	471	1028.9	349.42	471.97	1031.1	268.84	619.27	944.46	496.16	584.43	940.75	132.9	586	1085.7	474.04	605.62	1077.9	154.29	457.39	995.06	312.04	697.08	705.52	511.9	776.83	645.67	485.17	714.19	618.28	498.48	759.94	735.55	491.19	761.69	515.43	493.24	768.99	513.23	366.24	648.73	317.39	505.64	682.7	236.17	483.68	618.31	246.25	494.67	711.93	306.98	495.17	596.91	113.06	474.11	611.31	113.71	385.92	522.51	74.753	428.59	531.65	43.84	397.7	529.24	43.45	463.28	704.6	36.345	507.06	734.48	44.257	387.27	799.61	54.426	436.21	721.41	702.9	113.02	797.07	638.86	161.97	734.21	612.64	121.17	775.47	731.54	153.03	740.07	517.91	128.47	772.1	517.77	245.78	633.62	320.42	125.52	675.07	241.53	126.53	606.35	252.57	139.39	697.94	309.08	118.81	596.57	110.61	134.82	609.13	110.02	226.31	517.86	71.817	178.46	524.89	45.481	210.98	521.55	45.899	149.01	697.24	47.016	100.27	726.52	44.326	217.36	794.22	58.913	158.85	552.26	1506.1	313	480.19	1242.8	313.8
2165	9.0167	716.53	1244.4	319.01	598.3	1474.4	477.67	591.95	1466.8	146.34	659.93	1767.7	313.64	670.55	1008.9	444.42	674.81	1003.3	192.05	470.99	1028.9	349.44	471.96	1031	268.86	619.27	944.47	496.19	584.44	940.75	132.93	585.99	1085.7	474.06	605.62	1077.9	154.32	457.38	995.06	312.06	697.07	705.52	511.92	776.83	645.67	485.19	714.18	618.29	498.5	759.94	735.55	491.22	761.68	515.43	493.26	768.99	513.23	366.25	648.72	317.39	505.65	682.7	236.17	483.69	618.31	246.24	494.68	711.92	306.98	495.18	596.91	113.06	474.11	611.31	113.71	385.92	522.51	74.754	428.59	531.65	43.838	397.7	529.24	43.45	463.28	704.6	36.344	507.06	734.48	44.257	387.27	799.61	54.426	436.21	721.4	702.9	113.05	797.07	638.86	161.99	734.2	612.64	121.19	775.46	731.53	153.05	740.07	517.91	128.48	772.1	517.77	245.8	633.62	320.42	125.53	675.07	241.53	126.54	606.35	252.58	139.39	697.94	309.09	118.82	596.57	110.61	134.82	609.13	110.02	226.31	517.86	71.817	178.46	524.89	45.481	210.98	521.55	45.899	149.01	697.24	47.017	100.27	726.52	44.329	217.36	794.22	58.915	158.85	552.24	1506.1	313.04	480.18	1242.8	313.83
